<svg width="16" height="16" viewBox="0 0 16 16" fill="none" xmlns="http://www.w3.org/2000/svg">
<path d="M15.278 0.802856H1.22244C0.884418 0.802856 0.611328 1.07353 0.611328 1.40856V15.3398C0.611328 15.6748 0.884418 15.9455 1.22244 15.9455H15.278C15.616 15.9455 15.8891 15.6748 15.8891 15.3398V1.40856C15.8891 1.07353 15.616 0.802856 15.278 0.802856ZM13.5134 5.22262H12.2931C11.3363 5.22262 11.1511 5.67311 11.1511 6.3356V7.79497H13.4351L13.1372 10.0796H11.1511V15.9455H8.76966V10.0815H6.77782V7.79497H8.76966V6.11035C8.76966 4.15506 9.9747 3.0894 11.7355 3.0894C12.5796 3.0894 13.3033 3.15186 13.5153 3.18025V5.22262H13.5134Z" fill="#AAAAAA"/>
</svg>
