<svg width="17" height="16" viewBox="0 0 17 16" fill="none" xmlns="http://www.w3.org/2000/svg">
<path d="M8.58229 5.84933C7.17961 5.84933 6.03491 6.9839 6.03491 8.37418C6.03491 9.76446 7.17961 10.899 8.58229 10.899C9.98497 10.899 11.1297 9.76446 11.1297 8.37418C11.1297 6.9839 9.98497 5.84933 8.58229 5.84933ZM16.2225 8.37418C16.2225 7.32863 16.2321 6.29255 16.1728 5.2489C16.1136 4.03667 15.8346 2.96081 14.9402 2.07437C14.044 1.18603 12.9604 0.911384 11.7374 0.852667C10.6825 0.793949 9.63717 0.80342 8.5842 0.80342C7.52932 0.80342 6.484 0.793949 5.43103 0.852667C4.20798 0.911384 3.12252 1.18792 2.22817 2.07437C1.33191 2.96271 1.05481 4.03667 0.995567 5.2489C0.936326 6.29445 0.945881 7.33052 0.945881 8.37418C0.945881 9.41783 0.936326 10.4558 0.995567 11.4995C1.05481 12.7117 1.33382 13.7875 2.22817 14.674C3.12444 15.5623 4.20798 15.837 5.43103 15.8957C6.48591 15.9544 7.53123 15.9449 8.5842 15.9449C9.63908 15.9449 10.6844 15.9544 11.7374 15.8957C12.9604 15.837 14.0459 15.5604 14.9402 14.674C15.8365 13.7857 16.1136 12.7117 16.1728 11.4995C16.234 10.4558 16.2225 9.41973 16.2225 8.37418ZM8.58229 12.259C6.41329 12.259 4.6628 10.524 4.6628 8.37418C4.6628 6.22436 6.41329 4.48936 8.58229 4.48936C10.7513 4.48936 12.5018 6.22436 12.5018 8.37418C12.5018 10.524 10.7513 12.259 8.58229 12.259ZM12.6623 5.23753C12.1559 5.23753 11.7469 4.83219 11.7469 4.33025C11.7469 3.82831 12.1559 3.42297 12.6623 3.42297C13.1687 3.42297 13.5777 3.82831 13.5777 4.33025C13.5778 4.44944 13.5543 4.56749 13.5083 4.67763C13.4624 4.78777 13.3949 4.88785 13.3099 4.97213C13.2249 5.05641 13.1239 5.12323 13.0128 5.16877C12.9017 5.21432 12.7826 5.23768 12.6623 5.23753Z" fill="#AAAAAA"/>
</svg>
