<svg width="16" height="16" viewBox="0 0 16 16" fill="none" xmlns="http://www.w3.org/2000/svg">
<path d="M14.944 0.802856H0.888455C0.550434 0.802856 0.277344 1.07353 0.277344 1.40856V15.3398C0.277344 15.6748 0.550434 15.9455 0.888455 15.9455H14.944C15.282 15.9455 15.5551 15.6748 15.5551 15.3398V1.40856C15.5551 1.07353 15.282 0.802856 14.944 0.802856ZM12.0279 6.28639C12.0336 6.37535 12.0336 6.4681 12.0336 6.55895C12.0336 9.33763 9.89852 12.5384 5.99696 12.5384C4.79384 12.5384 3.67856 12.192 2.73898 11.5958C2.91085 11.6147 3.07509 11.6223 3.25078 11.6223C4.24384 11.6223 5.15668 11.2891 5.88429 10.7251C4.95234 10.7061 4.16936 10.1004 3.902 9.2676C4.22856 9.31492 4.52266 9.31492 4.85877 9.22974C4.3789 9.13311 3.94759 8.8748 3.6381 8.4987C3.32862 8.12259 3.16004 7.65189 3.16102 7.16655V7.14005C3.44175 7.29716 3.77214 7.39369 4.11779 7.40694C3.82722 7.215 3.58891 6.95495 3.42401 6.64987C3.25912 6.34478 3.17272 6.00408 3.17248 5.65797C3.17248 5.26615 3.27561 4.90841 3.46085 4.59798C3.99348 5.24786 4.65811 5.77938 5.41156 6.15799C6.16501 6.5366 6.99041 6.75383 7.83411 6.79556C7.53429 5.36647 8.61137 4.20995 9.90616 4.20995C10.5173 4.20995 11.0673 4.46359 11.4549 4.87244C11.9343 4.78348 12.3926 4.60555 12.8013 4.36706C12.6428 4.85351 12.3105 5.26426 11.8694 5.52358C12.2971 5.47815 12.7096 5.36079 13.0916 5.19612C12.8032 5.61632 12.4423 5.98921 12.0279 6.28639Z" fill="#AAAAAA"/>
</svg>
